<svg width="155" height="90" viewBox="0 0 155 90" fill="none" xmlns="http://www.w3.org/2000/svg">
<g id="Group 809">
<g id="CDM SQUARE">
<g id="CDM">
<path id="CD" d="M77.3104 21.8316C77.3104 23.3727 77.1563 24.8624 76.8481 26.3007C76.3858 28.6637 75.5125 30.8725 74.3311 32.8759C74.2283 33.0814 74.0742 33.2868 73.9715 33.4923C71.814 36.934 68.7319 39.7079 65.0847 41.5058C62.1567 42.9442 58.8691 43.7661 55.4274 43.7661H21.935C14.127 43.7661 7.24361 39.6566 3.39096 33.4923C1.28485 30.1534 0.052002 26.1466 0.052002 21.883C0.052002 17.6194 1.28485 13.6127 3.39096 10.2737C7.24361 4.10946 14.127 -3.05176e-05 21.935 -3.05176e-05H33.6471V10.2737H21.935C15.514 10.2737 10.3257 15.4619 10.3257 21.883C10.3257 28.3041 15.514 33.4923 21.935 33.4923H55.4274C60.7184 33.4923 65.1874 29.9479 66.5744 25.1192C66.8826 24.0919 67.0367 23.0131 67.0367 21.883C67.0367 21.0611 66.934 20.2906 66.7799 19.5201C65.7011 14.2291 61.0266 10.2737 55.4274 10.2737H48.955V28.4582H38.6812V-3.05176e-05H55.4274C59.9478 -3.05176e-05 64.2114 1.38692 67.7045 3.74988C70.2216 5.44505 72.379 7.6539 73.9715 10.2737C74.2283 10.6846 74.4852 11.147 74.742 11.5579C75.9235 13.7668 76.7454 16.1811 77.105 18.6982C77.2591 19.7255 77.3104 20.7529 77.3104 21.8316Z" fill="#0071CE"/>
<path id="M" d="M154.154 21.883V43.7146H143.88V21.883C143.88 15.4619 138.692 10.2737 132.271 10.2737C125.85 10.2737 120.661 15.4619 120.661 21.883V43.7146H110.388V21.883C110.388 15.4619 105.199 10.2737 98.7783 10.2737C92.3572 10.2737 87.169 15.4619 87.169 21.883V43.7146H76.8953V21.883C76.8953 14.0749 81.0048 7.19155 87.169 3.3389C90.508 1.23279 94.5147 -6.10352e-05 98.7783 -6.10352e-05C103.042 -6.10352e-05 107.049 1.23279 110.388 3.3389C112.34 4.57175 114.035 6.06144 115.524 7.80797C116.963 6.06144 118.709 4.57175 120.661 3.3389C124 1.23279 128.007 -6.10352e-05 132.271 -6.10352e-05C136.534 -6.10352e-05 140.541 1.23279 143.88 3.3389C150.044 7.19155 154.154 14.0749 154.154 21.883Z" fill="#0071CE"/>
</g>
<path id="SQUARE" d="M77.0032 8.61218L63.7454 21.87L77.0032 35.1278L90.261 21.87L77.0032 8.61218Z" fill="#E7004C"/>
</g>
<g id="CDM ARABIC">
<path id="1" d="M10.8412 70.0155H8.06726V72.3271H10.8412V70.0155Z" fill="black"/>
<path id="2" d="M14.9483 65.8541H4.41771C4.05813 65.8541 3.69855 65.8028 3.49308 65.7C3.23623 65.5973 3.03075 65.4432 2.87665 65.1863C2.72254 64.9809 2.6198 64.724 2.56843 64.4158C2.51706 64.1076 2.4657 63.748 2.4657 63.3884V62.3611H0V63.6453C0 64.4158 0.10274 65.0836 0.308215 65.6487C0.51369 66.2137 0.770536 66.676 1.13012 67.0356C1.4897 67.3952 1.90064 67.7034 2.36296 67.8575C2.82528 68.063 3.33896 68.1143 3.90402 68.1143H17.7736V59.7926H14.9997V65.8541H14.9483Z" fill="black"/>
<path id="3" d="M40.1217 54.1936H37.3478V56.5052H40.1217V54.1936Z" fill="black"/>
<path id="4" d="M69.5558 65.8548H66.936H63.5971H63.2375C63.032 65.8548 62.7752 65.8548 62.5697 65.8034C62.3642 65.752 62.1587 65.7007 62.0046 65.5979C61.8505 65.4952 61.6964 65.3411 61.5937 65.187C61.4909 65.0329 61.4396 64.8274 61.4396 64.5706V64.0055C61.4396 63.1836 61.2855 62.5158 61.0286 61.8994C60.7718 61.283 60.4122 60.7693 59.9499 60.4097C59.4876 59.9987 58.9225 59.6905 58.3061 59.4851C57.6896 59.2796 57.0219 59.1768 56.2513 59.1768C55.5322 59.1768 54.8644 59.2796 54.1966 59.4851C53.5802 59.6905 53.0151 59.9987 52.5528 60.4097C52.0905 60.8206 51.7309 61.3343 51.474 61.8994C51.2172 62.5158 51.0631 63.235 51.0631 64.0055V64.5706C51.0631 64.8274 51.0117 65.0329 50.909 65.187C50.8063 65.3411 50.6522 65.4952 50.498 65.5979C50.3439 65.7007 50.1385 65.752 49.933 65.8034C49.7275 65.8548 49.4707 65.8548 49.2652 65.8548H48.9056H45.5153H45.1557C44.8988 65.8548 44.642 65.8548 44.3338 65.8548C44.0256 65.8548 43.7174 65.8548 43.4092 65.8548H42.7414V65.752C43.3064 65.187 43.666 64.6733 43.8715 64.1596C44.0256 63.6459 44.1283 63.1836 44.1283 62.6699C44.1283 62.0535 44.0256 61.4884 43.8201 61.0775C43.6146 60.6665 43.3578 60.2556 43.0496 59.9987C42.7414 59.7419 42.3304 59.5364 41.8167 59.3823C41.3544 59.2282 40.8407 59.1768 40.2757 59.1768H32.3135V59.5364C32.6731 59.896 32.9813 60.307 33.2382 60.9234C33.495 61.4884 33.7519 62.1049 34.0087 62.7213C34.2655 63.3377 34.5224 63.9028 34.7279 64.4678C34.9847 65.0329 35.2929 65.4952 35.6011 65.8034V65.9061H31.1321H27.7931H27.3822C27.1253 65.9061 26.9198 65.9061 26.663 65.8548C26.4061 65.8034 26.2007 65.752 25.9952 65.5979C25.7897 65.4952 25.6356 65.3411 25.4815 65.0842C25.3788 64.8788 25.276 64.6219 25.276 64.2623V59.8446H22.5021V67.8581C22.5021 68.8341 22.3994 69.5533 22.1939 70.0156C21.9884 70.4779 21.5775 70.7348 21.0124 70.7348C20.807 70.7348 20.6015 70.7348 20.396 70.6834C20.1905 70.632 20.0364 70.5807 19.8823 70.4779V72.4813C20.1392 72.5841 20.396 72.6868 20.7042 72.7382C21.0124 72.7895 21.3206 72.8409 21.6289 72.8409C22.348 72.8409 22.9131 72.7382 23.3754 72.4813C23.8377 72.2245 24.1973 71.9163 24.5055 71.4539C24.7623 71.043 24.9678 70.4779 25.1219 69.9129C25.2247 69.2965 25.3274 68.6287 25.3274 67.9095V66.9849H25.4301C25.5329 67.1904 25.6356 67.3445 25.7383 67.4986C25.8925 67.6527 26.0466 67.7554 26.252 67.8581C26.4575 67.9609 26.6116 68.0636 26.8171 68.115C27.0226 68.1664 27.228 68.2177 27.3822 68.2177H27.7931H31.1321H45.5153H48.8542H49.3679C49.8816 68.2177 50.3953 68.0636 50.8576 67.8068C51.3199 67.5499 51.6281 67.2417 51.885 66.8308C52.3473 67.4986 52.9637 67.9609 53.6829 68.3205C54.4534 68.6287 55.2753 68.7828 56.2 68.7828C57.1246 68.7828 57.9979 68.6287 58.717 68.3205C59.4876 68.0122 60.104 67.4986 60.5149 66.8308C60.7204 67.1904 61.08 67.5499 61.5423 67.8068C62.0046 68.0636 62.4669 68.2177 63.032 68.2177H63.5457H66.8846H72.2784V54.2455H69.5044V65.8548H69.5558ZM41.2003 63.7487C41.0976 64.1596 40.8921 64.5192 40.6866 64.8274C40.4812 65.1356 40.1729 65.4438 39.8647 65.6493C39.5565 65.8548 39.1969 65.9575 38.786 65.9575C38.5291 65.9575 38.2723 65.8548 38.0668 65.6493C37.8613 65.4438 37.6559 65.2384 37.5018 64.9301C37.3477 64.6219 37.1936 64.3137 37.0395 63.9541C36.8853 63.5945 36.7826 63.235 36.6799 62.9268C36.5771 62.5672 36.423 62.259 36.3203 62.0021C36.2176 61.7453 36.0634 61.5398 35.9093 61.3857H39.762C40.1729 61.3857 40.5839 61.4884 40.8921 61.6939C41.2003 61.8994 41.3544 62.2076 41.3544 62.6186C41.3544 62.9781 41.3031 63.3377 41.2003 63.7487ZM58.3574 64.9815C58.2547 65.2897 58.1006 65.5979 57.9465 65.8034C57.741 66.0602 57.5355 66.2143 57.2273 66.3685C56.9705 66.5226 56.6109 66.5739 56.2513 66.5739C55.8917 66.5739 55.5322 66.5226 55.2753 66.3685C55.0185 66.2143 54.7616 66.0602 54.5562 65.8034C54.3507 65.5466 54.2479 65.2897 54.1452 64.9815C54.0425 64.6733 53.9911 64.3137 53.9911 63.9541C53.9911 63.5945 54.0425 63.235 54.1452 62.9268C54.2479 62.6185 54.4021 62.3103 54.5562 62.1049C54.7616 61.848 54.9671 61.6939 55.2753 61.5398C55.5322 61.3857 55.8917 61.3343 56.2513 61.3343C56.6109 61.3343 56.9705 61.3857 57.2273 61.5398C57.4842 61.6939 57.741 61.848 57.9465 62.1049C58.152 62.3617 58.2547 62.6185 58.3574 62.9268C58.4602 63.235 58.5115 63.5945 58.5115 63.9541C58.5115 64.3137 58.4602 64.6733 58.3574 64.9815Z" fill="black"/>
<path id="5" d="M78.2318 54.1936H75.4579V68.1659H78.2318V54.1936Z" fill="black"/>
<path id="6" d="M103.25 54.1936H100.476V56.5052H103.25V54.1936Z" fill="black"/>
<path id="7" d="M105.357 59.7411C104.894 59.3301 104.329 59.0219 103.713 58.8164C103.096 58.6109 102.429 58.5082 101.658 58.5082C100.939 58.5082 100.271 58.6109 99.6548 58.8164C99.0384 59.0219 98.4733 59.3301 98.0623 59.7411C97.6 60.152 97.2405 60.6657 96.9836 61.2307C96.7268 61.8472 96.624 62.515 96.624 63.2855C96.624 63.7478 96.7268 64.2101 96.9322 64.6211C97.1377 65.032 97.3946 65.3916 97.7028 65.6998V65.8025H90.6653C90.3057 65.8025 89.9461 65.7512 89.7406 65.6484C89.5352 65.5457 89.2783 65.3916 89.1242 65.1348C88.9701 64.9293 88.8674 64.6724 88.816 64.3642C88.7646 64.056 88.7133 63.6964 88.7133 63.3369V62.3095H86.2476V63.5937C86.2476 64.3642 86.3503 65.032 86.5558 65.5971C86.7612 66.1621 87.0181 66.6245 87.3777 66.984C87.7373 67.3436 88.1482 67.6518 88.6105 67.8059C89.0728 68.0114 89.5865 68.0628 90.1516 68.0628H101.71C102.429 68.0628 103.096 67.96 103.764 67.7546C104.381 67.5491 104.946 67.2409 105.408 66.8813C105.87 66.4703 106.23 66.008 106.487 65.3916C106.744 64.7752 106.898 64.1074 106.898 63.2855C106.898 62.4636 106.744 61.7958 106.487 61.1794C106.179 60.6657 105.819 60.152 105.357 59.7411ZM103.816 64.4156C103.713 64.7238 103.559 64.9806 103.405 65.2375C103.199 65.4943 102.994 65.6484 102.686 65.8025C102.429 65.9567 102.069 66.008 101.71 66.008C100.939 66.008 100.374 65.7512 100.014 65.2889C99.6548 64.8265 99.4493 64.1588 99.4493 63.3882C99.4493 63.0287 99.5007 62.6691 99.6034 62.3609C99.7061 62.0526 99.8603 61.7444 100.014 61.539C100.22 61.2821 100.425 61.128 100.734 60.9739C100.99 60.8198 101.35 60.7684 101.71 60.7684C102.069 60.7684 102.429 60.8198 102.686 60.9739C102.942 61.128 103.199 61.2821 103.405 61.539C103.61 61.7958 103.713 62.0526 103.816 62.3609C103.918 62.6691 103.97 63.0287 103.97 63.3882C103.918 63.7478 103.867 64.1074 103.816 64.4156Z" fill="black"/>
<path id="8" d="M153.697 61.2825C153.44 60.6661 153.08 60.2038 152.618 59.7928C152.156 59.3819 151.591 59.0737 150.974 58.8682C150.358 58.6627 149.69 58.56 148.919 58.56C148.2 58.56 147.533 58.6627 146.916 58.8682C146.3 59.0737 145.735 59.3819 145.324 59.7928C144.861 60.2038 144.502 60.7175 144.245 61.2825C143.988 61.8989 143.885 62.5667 143.885 63.3373C143.885 63.7996 143.988 64.2619 144.194 64.6728C144.399 65.0838 144.656 65.4434 144.964 65.7516V65.8543H143.012H139.673H139.262C139.005 65.8543 138.8 65.8029 138.543 65.7516C138.286 65.7002 138.081 65.5975 137.875 65.4434C137.67 65.2893 137.516 65.1352 137.361 64.8783C137.259 64.6728 137.156 64.3646 137.156 64.005V63.3373C137.156 62.5667 137.002 61.8989 136.745 61.3339C136.437 60.7688 136.077 60.3065 135.564 59.9983C135.05 59.6387 134.485 59.3819 133.868 59.2278C133.201 59.0737 132.533 58.9709 131.762 58.9709C131.043 58.9709 130.324 59.125 129.656 59.3819C128.988 59.6387 128.321 59.9983 127.704 60.4092C127.088 60.8202 126.523 61.3339 126.009 61.8476C125.495 62.3613 124.982 62.9263 124.571 63.4914H124.468V60.4092H121.797V65.9057H119.793H116.454H116.044C115.787 65.9057 115.581 65.9057 115.324 65.8543C115.068 65.803 114.862 65.7516 114.657 65.5975C114.451 65.4947 114.297 65.3406 114.143 65.0838C114.04 64.8783 113.937 64.6215 113.937 64.2619V59.8442H111.163V67.8577C111.163 68.8337 111.061 69.5529 110.855 70.0152C110.65 70.4775 110.239 70.7343 109.674 70.7343C109.468 70.7343 109.263 70.7343 109.057 70.683C108.852 70.6316 108.698 70.5802 108.544 70.4775V72.4809C108.801 72.5836 109.057 72.6863 109.366 72.7377C109.674 72.7891 109.982 72.8405 110.29 72.8405C111.009 72.8405 111.574 72.7377 112.037 72.4809C112.499 72.224 112.859 71.9158 113.167 71.4535C113.424 71.0426 113.629 70.4775 113.783 69.9124C113.886 69.296 113.989 68.6282 113.989 67.9091V66.9844H114.092C114.194 67.1899 114.297 67.344 114.4 67.4981C114.554 67.6522 114.708 67.755 114.913 67.8577C115.119 67.9604 115.273 68.0632 115.478 68.1145C115.684 68.1659 115.889 68.2173 116.044 68.2173H116.454H119.793H136.642C136.796 68.0118 136.899 67.8063 136.951 67.5495C137.053 67.2926 137.105 67.0872 137.105 66.9844H137.207C137.31 67.1899 137.413 67.344 137.567 67.4981C137.721 67.6522 137.875 67.755 138.081 67.8577C138.286 67.9604 138.44 68.0632 138.646 68.1145C138.851 68.1659 139.057 68.2173 139.211 68.2173H139.622H142.961H148.919C149.639 68.2173 150.306 68.1145 150.974 67.9091C151.591 67.7036 152.156 67.3954 152.618 67.0358C153.08 66.6248 153.44 66.1625 153.697 65.5461C153.954 64.9297 154.108 64.2619 154.108 63.44C154.108 62.6181 154.005 61.8476 153.697 61.2825ZM134.433 65.8543H125.239C125.239 65.803 125.341 65.6488 125.547 65.392C125.701 65.1352 125.958 64.8783 126.266 64.5187C126.574 64.1592 126.882 63.7996 127.293 63.44C127.704 63.0804 128.115 62.7208 128.577 62.3613C129.04 62.053 129.553 61.7448 130.067 61.5394C130.581 61.3339 131.146 61.2311 131.711 61.2311C132.533 61.2311 133.201 61.3852 133.663 61.6935C134.125 62.0017 134.382 62.5667 134.382 63.3886V65.8543H134.433ZM151.077 64.416C150.974 64.7242 150.82 64.981 150.666 65.2379C150.461 65.4947 150.255 65.6488 149.947 65.8029C149.69 65.9571 149.33 66.0084 148.971 66.0084C148.2 66.0084 147.635 65.7516 147.276 65.2893C146.916 64.8269 146.711 64.1592 146.711 63.3886C146.711 63.0291 146.762 62.6695 146.865 62.3613C146.967 62.053 147.122 61.7448 147.276 61.5394C147.481 61.2825 147.687 61.1284 147.995 60.9743C148.252 60.8202 148.611 60.7688 148.971 60.7688C149.33 60.7688 149.69 60.8202 149.947 60.9743C150.204 61.1284 150.461 61.2825 150.666 61.5394C150.871 61.7962 150.974 62.053 151.077 62.3613C151.18 62.6695 151.231 63.0291 151.231 63.3886C151.231 63.7482 151.18 64.1078 151.077 64.416Z" fill="black"/>
<path id="9" d="M0 83.8848C0 80.9055 2.20885 78.5425 5.39371 78.5425C7.34572 78.5425 8.47582 79.2103 9.45183 80.1349L8.01351 81.7787C7.24298 81.0596 6.42108 80.5973 5.39371 80.5973C3.64717 80.5973 2.41433 82.0356 2.41433 83.7821V83.8335C2.41433 85.58 3.64717 87.0697 5.39371 87.0697C6.57519 87.0697 7.29436 86.6074 8.11626 85.8368L9.55457 87.2752C8.47583 88.4053 7.29434 89.1244 5.34234 89.1244C2.26022 89.1758 0 86.8642 0 83.8848Z" fill="black"/>
<path id="10" d="M11.9209 78.6964H16.6468C17.9824 78.6964 18.9584 79.056 19.6262 79.7238C20.1913 80.2889 20.4995 81.1108 20.4995 82.0868V82.1381C20.4995 83.7819 19.6262 84.8607 18.2906 85.323L20.8077 89.0215H18.1365L15.9276 85.734H14.1811V89.0215H11.9209V78.6964ZM16.4927 83.7306C17.5714 83.7306 18.2392 83.1655 18.2392 82.2922V82.2409C18.2392 81.2649 17.5714 80.7512 16.4413 80.7512H14.1811V83.7306H16.4927Z" fill="black"/>
<path id="11" d="M23.1674 78.6962H30.924V80.6995H25.4276V82.8057H30.3076V84.809H25.4276V86.9665H31.0268V88.9699H23.1674V78.6962ZM27.9446 75.5627L29.8967 76.3846L27.8933 77.8743H26.1981L27.9446 75.5627Z" fill="black"/>
<path id="11_2" d="M33.594 78.6964H37.6008C40.837 78.6964 43.0972 80.9053 43.0972 83.8333V83.8847C43.0972 86.7613 40.837 89.0215 37.6008 89.0215H33.594V78.6964ZM37.6008 86.9668C39.45 86.9668 40.6829 85.7339 40.6829 83.8847V83.8333C40.6829 81.984 39.45 80.7512 37.6008 80.7512H35.8542V86.9668H37.6008Z" fill="black"/>
<path id="12" d="M45.8204 78.6964H48.0807V89.0215H45.8204V78.6964Z" fill="black"/>
<path id="13" d="M53.6303 80.8026H50.4968V78.6964H59.024V80.8026H55.8905V89.0215H53.6303V80.8026Z" fill="black"/>
<path id="14" d="M66.3682 78.6964H70.3749C73.6111 78.6964 75.8714 80.9053 75.8714 83.8333V83.8847C75.8714 86.7613 73.6111 89.0215 70.3749 89.0215H66.3682V78.6964ZM70.3749 86.9668C72.2242 86.9668 73.457 85.7339 73.457 83.8847V83.8333C73.457 81.984 72.2242 80.7512 70.3749 80.7512H68.6284V86.9668H70.3749Z" fill="black"/>
<path id="15" d="M78.3375 84.6038V78.6964H80.5977V84.5011C80.5977 86.1963 81.4196 87.0695 82.8066 87.0695C84.1936 87.0695 85.0154 86.2476 85.0154 84.6038V78.6964H87.2757V84.5011C87.2757 87.6346 85.5291 89.1756 82.7552 89.1756C80.0327 89.1756 78.3375 87.6346 78.3375 84.6038Z" fill="black"/>
<path id="16" d="M95.189 78.6964H97.6547L100.377 83.0628L103.1 78.6964H105.565V89.0215H103.305V82.2922L100.429 86.71H100.377L97.5006 82.3436V89.0215H95.2917V78.6964H95.189Z" fill="black"/>
<path id="17" d="M112.139 78.6454H114.245L118.662 89.0218H116.3L115.375 86.7102H111.009L110.084 89.0218H107.772L112.139 78.6454ZM114.502 84.7069L113.115 81.3679L111.728 84.7069H114.502Z" fill="black"/>
<path id="18" d="M120.822 78.6964H125.547C126.883 78.6964 127.859 79.056 128.527 79.7238C129.092 80.2889 129.4 81.1108 129.4 82.0868V82.1381C129.4 83.7819 128.527 84.8607 127.191 85.323L129.708 89.0215H127.037L124.828 85.734H123.082V89.0215H120.822V78.6964ZM125.342 83.7306C126.421 83.7306 127.088 83.1655 127.088 82.2922V82.2409C127.088 81.2649 126.421 80.7512 125.291 80.7512H123.082V83.7306H125.342Z" fill="black"/>
<path id="19" d="M131.557 83.8848C131.557 80.9055 133.868 78.5425 137.053 78.5425C140.238 78.5425 142.498 80.9055 142.498 83.8335V83.8848C142.498 86.8129 140.187 89.2272 137.002 89.2272C133.817 89.2272 131.557 86.8129 131.557 83.8848ZM140.187 83.8848C140.187 82.0869 138.902 80.5973 137.053 80.5973C135.204 80.5973 133.971 82.0356 133.971 83.7821V83.8335C133.971 85.58 135.255 87.0697 137.105 87.0697C138.902 87.1211 140.187 85.6314 140.187 83.8848Z" fill="black"/>
<path id="20" d="M144.706 83.8848C144.706 80.9055 146.915 78.5425 150.1 78.5425C152.052 78.5425 153.182 79.2103 154.158 80.1349L152.719 81.7787C151.949 81.0596 151.127 80.5973 150.1 80.5973C148.353 80.5973 147.12 82.0356 147.12 83.7821V83.8335C147.12 85.58 148.353 87.0697 150.1 87.0697C151.281 87.0697 152 86.6074 152.822 85.8368L154.26 87.2752C153.182 88.4053 152 89.1244 150.048 89.1244C146.915 89.1758 144.706 86.8642 144.706 83.8848Z" fill="black"/>
</g>
</g>
</svg>
